<svg id="visual" viewBox="0 0 960 540" width="960" height="540" xmlns="http://www.w3.org/2000/svg" xmlns:xlink="http://www.w3.org/1999/xlink" version="1.1"><path d="M0 324L22.8 332.5C45.7 341 91.3 358 137 367.2C182.7 376.3 228.3 377.7 274 375.5C319.7 373.3 365.3 367.7 411.2 369C457 370.3 503 378.7 548.8 374.2C594.7 369.7 640.3 352.3 686 342.7C731.7 333 777.3 331 823 328.5C868.7 326 914.3 323 937.2 321.5L960 320L960 541L937.2 541C914.3 541 868.7 541 823 541C777.3 541 731.7 541 686 541C640.3 541 594.7 541 548.8 541C503 541 457 541 411.2 541C365.3 541 319.7 541 274 541C228.3 541 182.7 541 137 541C91.3 541 45.7 541 22.8 541L0 541Z" fill="#3ece78"></path><path d="M0 417L22.8 417.8C45.7 418.7 91.3 420.3 137 410.3C182.7 400.3 228.3 378.7 274 373.7C319.7 368.7 365.3 380.3 411.2 391C457 401.7 503 411.3 548.8 406.2C594.7 401 640.3 381 686 376.5C731.7 372 777.3 383 823 392.5C868.7 402 914.3 410 937.2 414L960 418L960 541L937.2 541C914.3 541 868.7 541 823 541C777.3 541 731.7 541 686 541C640.3 541 594.7 541 548.8 541C503 541 457 541 411.2 541C365.3 541 319.7 541 274 541C228.3 541 182.7 541 137 541C91.3 541 45.7 541 22.8 541L0 541Z" fill="#8eb43b"></path><path d="M0 457L22.8 453.3C45.7 449.7 91.3 442.3 137 435.7C182.7 429 228.3 423 274 426.8C319.7 430.7 365.3 444.3 411.2 441.3C457 438.3 503 418.7 548.8 412.3C594.7 406 640.3 413 686 412.8C731.7 412.7 777.3 405.3 823 407.3C868.7 409.3 914.3 420.7 937.2 426.3L960 432L960 541L937.2 541C914.3 541 868.7 541 823 541C777.3 541 731.7 541 686 541C640.3 541 594.7 541 548.8 541C503 541 457 541 411.2 541C365.3 541 319.7 541 274 541C228.3 541 182.7 541 137 541C91.3 541 45.7 541 22.8 541L0 541Z" fill="#b99520"></path><path d="M0 432L22.8 436.2C45.7 440.3 91.3 448.7 137 457.3C182.7 466 228.3 475 274 475.5C319.7 476 365.3 468 411.2 466.7C457 465.3 503 470.7 548.8 466.3C594.7 462 640.3 448 686 446.5C731.7 445 777.3 456 823 460.8C868.7 465.7 914.3 464.3 937.2 463.7L960 463L960 541L937.2 541C914.3 541 868.7 541 823 541C777.3 541 731.7 541 686 541C640.3 541 594.7 541 548.8 541C503 541 457 541 411.2 541C365.3 541 319.7 541 274 541C228.3 541 182.7 541 137 541C91.3 541 45.7 541 22.8 541L0 541Z" fill="#d27235"></path><path d="M0 491L22.8 489.8C45.7 488.7 91.3 486.3 137 489.5C182.7 492.7 228.3 501.3 274 506.7C319.7 512 365.3 514 411.2 507.7C457 501.3 503 486.7 548.8 485.8C594.7 485 640.3 498 686 499.8C731.7 501.7 777.3 492.3 823 490.7C868.7 489 914.3 495 937.2 498L960 501L960 541L937.2 541C914.3 541 868.7 541 823 541C777.3 541 731.7 541 686 541C640.3 541 594.7 541 548.8 541C503 541 457 541 411.2 541C365.3 541 319.7 541 274 541C228.3 541 182.7 541 137 541C91.3 541 45.7 541 22.8 541L0 541Z" fill="#d55258"></path></svg>